<svg width="128" height="128" viewBox="0 0 128 128" fill="none" xmlns="http://www.w3.org/2000/svg">
<path d="M85.5 0H96.25V10.7113H85.5V0Z" fill="#8E5CE5"/>
<path d="M96.25 10.7113H107V21.4226H96.25V10.7113Z" fill="#8E5CE5"/>
<path d="M96.25 21.4226H107V32.1339H96.25V21.4226Z" fill="#8E5CE5"/>
<path d="M96.25 32.1339H107V42.8452H96.25V32.1339Z" fill="#8E5CE5"/>
<path d="M96.25 42.8452H107V53.5565H96.25V42.8452Z" fill="#8E5CE5"/>
<path d="M96.25 53.5565H107V64.2678H96.25V53.5565Z" fill="#8E5CE5"/>
<path d="M96.25 64.2678H107V74.9791H96.25V64.2678Z" fill="#8E5CE5"/>
<path d="M96.25 74.9791H107V85.6904H96.25V74.9791Z" fill="#8E5CE5"/>
<path d="M74.75 0H85.5V10.7113H74.75V0Z" fill="#8E5CE5"/>
<path d="M64 0H74.75V10.7113H64V0Z" fill="#8E5CE5"/>
<path d="M53.25 0H64V10.7113H53.25V0Z" fill="#8E5CE5"/>
<path d="M42.5 0H53.25V10.7113H42.5V0Z" fill="#8E5CE5"/>
<path d="M31.75 0H42.5V10.7113H31.75V0Z" fill="#8E5CE5"/>
<path d="M21 10.7113H31.75V21.4226H21V10.7113Z" fill="#8E5CE5"/>
<path d="M21 21.4226H31.75V32.1339H21V21.4226Z" fill="#8E5CE5"/>
<path d="M21 32.1339H31.75V42.8452H21V32.1339Z" fill="#8E5CE5"/>
<path d="M21 42.8452H31.75V53.5565H21V42.8452Z" fill="#8E5CE5"/>
<path d="M21 53.5565H31.75V64.2678H21V53.5565Z" fill="#8E5CE5"/>
<path d="M21 64.2678H31.75V74.9791H21V64.2678Z" fill="#8E5CE5"/>
<path d="M21 74.9791H31.75V85.6904H21V74.9791Z" fill="#8E5CE5"/>
<path d="M21 85.6904H31.75V96.4017H21V85.6904Z" fill="#8E5CE5"/>
<path d="M21 95.8661H31.75V106.577H21V95.8661Z" fill="#8E5CE5"/>
<path d="M21 106.577H31.75V117.289H21V106.577Z" fill="#8E5CE5"/>
<path d="M31.75 117.289H42.5V128H31.75V117.289Z" fill="#8E5CE5"/>
<path d="M42.5 117.289H53.25V128H42.5V117.289Z" fill="#8E5CE5"/>
<path d="M53.25 117.289H64V128H53.25V117.289Z" fill="#8E5CE5"/>
<path d="M64 117.289H74.75V128H64V117.289Z" fill="#8E5CE5"/>
<path d="M74.75 106.577H85.5V117.289H74.75V106.577Z" fill="#8E5CE5"/>
<path d="M74.75 85.1548H85.5V95.8661H74.75V85.1548Z" fill="#8E5CE5"/>
<path d="M74.75 95.8661H85.5V106.577H74.75V95.8661Z" fill="#8E5CE5"/>
<path d="M74.75 74.4435H85.5V85.1548H74.75V74.4435Z" fill="#8E5CE5"/>
<path d="M74.75 63.7322H85.5V74.4435H74.75V63.7322Z" fill="#8E5CE5"/>
<path d="M74.75 53.0209H85.5V63.7322H74.75V53.0209Z" fill="#8E5CE5"/>
<path d="M74.75 42.3096H85.5V53.0209H74.75V42.3096Z" fill="#8E5CE5"/>
<path d="M74.75 31.5983H85.5V42.3096H74.75V31.5983Z" fill="#8E5CE5"/>
<path d="M64 20.887H74.75V31.5983H64V20.887Z" fill="#8E5CE5"/>
<path d="M53.25 20.887H64V31.5983H53.25V20.887Z" fill="#8E5CE5"/>
<path d="M42.5 31.5983H53.25V42.3096H42.5V31.5983Z" fill="#8E5CE5"/>
<path d="M42.5 42.3096H53.25V53.0209H42.5V42.3096Z" fill="#8E5CE5"/>
<path d="M42.5 53.0209H53.25V63.7322H42.5V53.0209Z" fill="#8E5CE5"/>
<path d="M42.5 63.7322H53.25V74.4435H42.5V63.7322Z" fill="#8E5CE5"/>
</svg>
