<svg width="270" height="33" viewBox="0 0 270 33" fill="none" xmlns="http://www.w3.org/2000/svg">
<path d="M12.868 29.636V26.54H9.7V23.444H6.496V20.384H3.328V17.288H0.16V12.428H3.328V9.332H6.496V6.236H9.7V3.176H12.868V0.079998H17.476V5.012H14.272V8.072H11.104V11.168H7.9V14.228H4.732V15.452H7.9V18.548H11.104V21.608H14.272V24.704H17.476V29.636H12.868Z" fill="#8E5CE5"/>
<path d="M41.733 26.432V17.216H32.157V14.12H28.989V3.068H33.561V12.32H41.733V3.068H46.305V26.432H41.733Z" fill="#8E5CE5"/>
<path d="M53.8844 26.432V23.3H50.6444V14.552H63.4964V13.868H50.6444V9.548H64.9004V12.716H68.1764V22.112H71.3804V26.432H66.7364V23.3H64.9004V26.432H53.8844ZM55.2884 22.112H63.4964V18.908H55.2884V22.112Z" fill="#8E5CE5"/>
<path d="M82.6804 26.396V14.048H80.9164V17.108H76.3444V12.248H79.5124V9.152H90.4564V12.248H93.6604V17.108H89.0524V14.048H87.2884V26.396H82.6804Z" fill="#8E5CE5"/>
<path d="M96.8478 19.448V14.516H107.792V19.448H96.8478Z" fill="#8E5CE5"/>
<path d="M114.423 26.396V23.336H111.255V3.032H125.367V6.128H128.571V11.024H123.963V7.964H115.827V12.284H125.367V15.308H128.571V23.336H125.367V26.396H114.423ZM115.827 21.5H123.963V17.144H115.827V21.5Z" fill="#8E5CE5"/>
<path d="M136.114 26.396V23.336H132.946V12.284H136.114V9.188H147.058V12.284H150.262V23.336H147.058V26.396H136.114ZM137.518 21.5H145.654V14.084H137.518V21.5Z" fill="#8E5CE5"/>
<path d="M160.973 26.396V14.048H159.209V17.108H154.637V12.248H157.805V9.152H168.749V12.248H171.953V17.108H167.345V14.048H165.581V26.396H160.973Z" fill="#8E5CE5"/>
<path d="M177.913 26.396V21.5H181.081V20.204H179.497V17.108H176.329V12.284H179.497V9.188H190.441V12.284H193.645V26.396H189.037V20.204H185.653V23.336H182.485V26.396H177.913ZM180.901 15.272H189.037V14.084H180.901V15.272Z" fill="#8E5CE5"/>
<path d="M198.02 32.372V12.284H201.188V9.188H212.132V12.284H215.336V23.336H212.132V26.396H202.592V32.372H198.02ZM202.592 21.5H210.728V14.084H202.592V21.5Z" fill="#8E5CE5"/>
<path d="M222.916 26.432V23.3H219.676V14.552H232.528V13.868H219.676V9.548H233.932V12.716H237.208V22.112H240.412V26.432H235.768V23.3H233.932V26.432H222.916ZM224.32 22.112H232.528V18.908H224.32V22.112Z" fill="#8E5CE5"/>
<path d="M252.547 29.636V24.704H255.715V21.608H258.919V18.548H262.087V15.452H265.291V14.228H262.087V11.168H258.919V8.072H255.715V5.012H252.547V0.079998H257.119V3.176H260.287V6.236H263.491V9.332H266.623V12.428H269.863V17.288H266.623V20.384H263.491V23.444H260.287V26.54H257.119V29.636H252.547Z" fill="#8E5CE5"/>
</svg>
