<svg width="32" height="32" viewBox="0 0 32 32" fill="none" xmlns="http://www.w3.org/2000/svg">
<path d="M14.2222 0H17.7778V3.55556H14.2222V0Z" fill="#8E5CE5"/>
<path d="M21.3333 0H24.8889V3.55556H21.3333V0Z" fill="#8E5CE5"/>
<path d="M28.4444 7.11111H32V10.6667H28.4444V7.11111Z" fill="#8E5CE5"/>
<path d="M28.4444 10.6667H32V14.2222H28.4444V10.6667Z" fill="#8E5CE5"/>
<path d="M28.4444 14.2222H32V17.7778H28.4444V14.2222Z" fill="#8E5CE5"/>
<path d="M24.8889 17.7778H28.4444V21.3333H24.8889V17.7778Z" fill="#8E5CE5"/>
<path d="M24.8889 3.55556H28.4444V7.11111H24.8889V3.55556Z" fill="#8E5CE5"/>
<path d="M10.6667 3.55556H14.2222V7.11111H10.6667V3.55556Z" fill="#8E5CE5"/>
<path d="M17.7778 0H21.3333V3.55556H17.7778V0Z" fill="#8E5CE5"/>
<path d="M7.11111 7.11111H10.6667V10.6667H7.11111V7.11111Z" fill="#8E5CE5"/>
<path d="M7.11111 10.6667H10.6667V14.2222H7.11111V10.6667Z" fill="#8E5CE5"/>
<path d="M14.2222 21.3333H17.7778V24.8889H14.2222V21.3333Z" fill="#8E5CE5"/>
<path d="M10.6667 17.7778H14.2222V21.3333H10.6667V17.7778Z" fill="#8E5CE5"/>
<path d="M7.11111 14.2222H10.6667V17.7778H7.11111V14.2222Z" fill="#8E5CE5"/>
<path d="M17.7778 21.3333H21.3333V24.8889H17.7778V21.3333Z" fill="#8E5CE5"/>
<path d="M21.3333 21.3333H24.8889V24.8889H21.3333V21.3333Z" fill="#8E5CE5"/>
<path d="M3.55556 24.8889H7.11111V28.4444H3.55556V24.8889Z" fill="#8E5CE5"/>
<path d="M0 28.4444H3.55556V32H0V28.4444Z" fill="#8E5CE5"/>
<path d="M7.11111 21.3333H10.6667V24.8889H7.11111V21.3333Z" fill="#8E5CE5"/>
<path d="M14.2222 7.11111H17.7778V10.6667H14.2222V7.11111Z" fill="#8E5CE5"/>
</svg>
