<svg width="60" height="60" viewBox="0 0 60 60" fill="none" xmlns="http://www.w3.org/2000/svg">
<rect x="30.0001" width="5" height="5" fill="#8E5CE5"/>
<rect x="24.9999" width="5" height="5" fill="#8E5CE5"/>
<rect x="20" y="5" width="5" height="5" fill="#8E5CE5"/>
<rect x="35" y="5" width="5" height="5" fill="#8E5CE5"/>
<rect x="39.9999" y="10" width="5" height="5" fill="#8E5CE5"/>
<rect x="39.9999" y="15" width="5" height="5" fill="#8E5CE5"/>
<rect x="35" y="20" width="5" height="5" fill="#8E5CE5"/>
<rect x="30.0001" y="25" width="5" height="5" fill="#8E5CE5"/>
<rect x="24.9999" y="25" width="5" height="5" fill="#8E5CE5"/>
<rect x="20" y="20" width="5" height="5" fill="#8E5CE5"/>
<rect x="15.0001" y="15" width="5" height="5" fill="#8E5CE5"/>
<rect x="15.0001" y="10" width="5" height="5" fill="#8E5CE5"/>
<rect x="30.0001" y="30" width="5" height="5" fill="#8E5CE5"/>
<rect x="24.9999" y="30" width="5" height="5" fill="#8E5CE5"/>
<rect x="20" y="30" width="5" height="5" fill="#8E5CE5"/>
<rect x="15.0001" y="35" width="5" height="5" fill="#8E5CE5"/>
<rect x="9.99988" y="40" width="5" height="5" fill="#8E5CE5"/>
<rect x="5" y="45" width="5" height="5" fill="#8E5CE5"/>
<rect x="5" y="50" width="5" height="5" fill="#8E5CE5"/>
<rect x="5" y="55" width="5" height="5" fill="#8E5CE5"/>
<rect x="35" y="30" width="5" height="5" fill="#8E5CE5"/>
<rect x="39.9999" y="35" width="5" height="5" fill="#8E5CE5"/>
<rect x="45.0001" y="40" width="5" height="5" fill="#8E5CE5"/>
<rect x="50" y="45" width="5" height="5" fill="#8E5CE5"/>
<rect x="50" y="50" width="5" height="5" fill="#8E5CE5"/>
<rect x="50" y="55" width="5" height="5" fill="#8E5CE5"/>
<rect x="45.0001" y="55" width="5" height="5" fill="#8E5CE5"/>
<rect x="39.9999" y="55" width="5" height="5" fill="#8E5CE5"/>
<rect x="35" y="55" width="5" height="5" fill="#8E5CE5"/>
<rect x="30.0001" y="55" width="5" height="5" fill="#8E5CE5"/>
<rect x="24.9999" y="55" width="5" height="5" fill="#8E5CE5"/>
<rect x="20" y="55" width="5" height="5" fill="#8E5CE5"/>
<rect x="15.0001" y="55" width="5" height="5" fill="#8E5CE5"/>
<rect x="9.99988" y="55" width="5" height="5" fill="#8E5CE5"/>
</svg>
